<svg xmlns="http://www.w3.org/2000/svg" version="1.1" xmlns:xlink="http://www.w3.org/1999/xlink" xmlns:svgjs="http://svgjs.dev/svgjs" width="1455" height="554" preserveAspectRatio="none" viewBox="0 0 1455 554"><g mask="url(&quot;#SvgjsMask1173&quot;)" fill="none"><path d="M -2714.9754699699392,108 C -2423.98,162.6 -1841.98,384.6 -1259.9754699699392,381 C -677.98,377.4 -347.97,98.6 195.02453003006076,90 C 738.02,81.4 1203,288.4 1455,338" stroke="rgba(51, 121, 194, 0.58)" stroke-width="2"></path><path d="M -1892.0543343059012,519 C -1601.05,440.4 -1019.05,128.4 -437.0543343059012,126 C 144.95,123.6 639.53,480.6 1017.9456656940988,507 C 1396.36,533.4 1367.59,307.8 1455,258" stroke="rgba(51, 121, 194, 0.58)" stroke-width="2"></path><path d="M -1385.2404643385219,361 C -1094.24,335.8 -512.24,214 69.75953566147807,235 C 651.76,256 1247.71,478 1524.7595356614781,466 C 1801.81,454 1468.95,233.2 1455,175" stroke="rgba(51, 121, 194, 0.58)" stroke-width="2"></path><path d="M -1607.383391039615,243 C -1316.38,282.6 -734.38,476.4 -152.38339103961493,441 C 429.62,405.6 981.14,87.4 1302.616608960385,66 C 1624.09,44.6 1424.52,280.4 1455,334" stroke="rgba(51, 121, 194, 0.58)" stroke-width="2"></path><path d="M -2429.96189294731,262 C -2138.96,266.2 -1556.96,308.4 -974.9618929473099,283 C -392.96,257.6 -5.95,86.8 480.03810705269007,135 C 966.03,183.2 1260.01,446.2 1455,524" stroke="rgba(51, 121, 194, 0.58)" stroke-width="2"></path><path d="M -335.62980107835847,465 C -44.63,403.4 537.37,186.6 1119.3701989216415,157 C 1701.37,127.4 2507.24,301.2 2574.3701989216415,317 C 2641.5,332.8 1678.87,252.2 1455,236" stroke="rgba(51, 121, 194, 0.58)" stroke-width="2"></path><path d="M -358.80996885535683,540 C -67.81,478.2 514.19,278.2 1096.1900311446432,231 C 1678.19,183.8 2479.43,315.4 2551.1900311446434,304 C 2622.95,292.6 1674.24,200 1455,174" stroke="rgba(51, 121, 194, 0.58)" stroke-width="2"></path><path d="M -1153.2800740574444,157 C -862.28,231.8 -280.28,551.4 301.7199259425555,531 C 883.72,510.6 1526.06,101.2 1756.7199259425556,55 C 1987.38,8.8 1515.34,251 1455,300" stroke="rgba(51, 121, 194, 0.58)" stroke-width="2"></path></g><defs><mask id="SvgjsMask1173"><rect width="1455" height="554" fill="#ffffff"></rect></mask></defs></svg>